<svg width="1280" height="720" viewBox="0 0 1280 720" fill="none" xmlns="http://www.w3.org/2000/svg">
  <rect width="1280" height="720" fill="#F8FAFC"/>
  <circle cx="1048" cy="120" r="228" fill="url(#paint0_radial)"/>
  <circle cx="168" cy="672" r="200" fill="url(#paint1_radial)"/>
  <rect x="48" y="48" width="1184" height="624" rx="36" fill="white" stroke="#E2E8F0" stroke-width="2"/>
  <rect x="84" y="84" width="1112" height="552" rx="28" fill="#FCFDFE"/>
  <text x="108" y="166" fill="#0F172A" font-family="Geist Sans, Arial, sans-serif" font-size="72" font-weight="700" letter-spacing="-0.05em">Empathy Engine</text>
  <text x="108" y="218" fill="#475569" font-family="Geist Sans, Arial, sans-serif" font-size="28" font-weight="500">Multi-agent scenario simulation with live context, network mapping, and interactive playback.</text>
  <rect x="108" y="272" width="356" height="64" rx="24" fill="#F8FAFC" stroke="#E2E8F0"/>
  <circle cx="142" cy="304" r="14" fill="#3B82F6"/>
  <text x="170" y="312" fill="#64748B" font-family="Geist Sans, Arial, sans-serif" font-size="24" font-weight="500">What moves the world today?</text>
  <rect x="864" y="138" width="272" height="388" rx="30" fill="white" stroke="#E2E8F0" stroke-width="2"/>
  <text x="896" y="188" fill="#94A3B8" font-family="Geist Sans, Arial, sans-serif" font-size="16" font-weight="600" letter-spacing="0.14em">LIVE FEED</text>
  <rect x="896" y="214" width="208" height="74" rx="20" fill="#F8FAFC"/>
  <text x="920" y="246" fill="#0F172A" font-family="Geist Sans, Arial, sans-serif" font-size="18" font-weight="600">Round 1</text>
  <text x="920" y="270" fill="#64748B" font-family="Geist Sans, Arial, sans-serif" font-size="14" font-weight="500">Agents begin reacting to the initial shock.</text>
  <rect x="896" y="304" width="208" height="74" rx="20" fill="#F8FAFC"/>
  <text x="920" y="336" fill="#0F172A" font-family="Geist Sans, Arial, sans-serif" font-size="18" font-weight="600">Round 2</text>
  <text x="920" y="360" fill="#64748B" font-family="Geist Sans, Arial, sans-serif" font-size="14" font-weight="500">Narrative alliances start to form and split.</text>
  <rect x="896" y="394" width="208" height="74" rx="20" fill="#F8FAFC"/>
  <text x="920" y="426" fill="#0F172A" font-family="Geist Sans, Arial, sans-serif" font-size="18" font-weight="600">Round 3</text>
  <text x="920" y="450" fill="#64748B" font-family="Geist Sans, Arial, sans-serif" font-size="14" font-weight="500">Sentiment shifts propagate through the graph.</text>
  <rect x="108" y="388" width="694" height="188" rx="28" fill="white" stroke="#E2E8F0" stroke-width="2"/>
  <circle cx="252" cy="482" r="34" fill="#DBEAFE"/>
  <circle cx="418" cy="434" r="20" fill="#E2E8F0"/>
  <circle cx="604" cy="492" r="38" fill="#FDE68A"/>
  <circle cx="716" cy="434" r="24" fill="#FECACA"/>
  <circle cx="532" cy="540" r="28" fill="#DCFCE7"/>
  <path d="M252 482L418 434L532 540L604 492L716 434" stroke="#CBD5E1" stroke-width="6" stroke-linecap="round"/>
  <rect x="108" y="608" width="252" height="40" rx="20" fill="#0F172A"/>
  <text x="138" y="634" fill="white" font-family="Geist Sans, Arial, sans-serif" font-size="18" font-weight="600">Search. Analyze. Simulate.</text>
  <defs>
    <radialGradient id="paint0_radial" cx="0" cy="0" r="1" gradientUnits="userSpaceOnUse" gradientTransform="translate(1048 120) rotate(90) scale(228)">
      <stop stop-color="#DBEAFE"/>
      <stop offset="1" stop-color="#DBEAFE" stop-opacity="0"/>
    </radialGradient>
    <radialGradient id="paint1_radial" cx="0" cy="0" r="1" gradientUnits="userSpaceOnUse" gradientTransform="translate(168 672) rotate(90) scale(200)">
      <stop stop-color="#E2E8F0"/>
      <stop offset="1" stop-color="#E2E8F0" stop-opacity="0"/>
    </radialGradient>
  </defs>
</svg>
